<?xml version="1.0" standalone="no"?><!DOCTYPE svg PUBLIC "-//W3C//DTD SVG 1.1//EN" "http://www.w3.org/Graphics/SVG/1.1/DTD/svg11.dtd"><svg t="1754894375008" class="icon" viewBox="0 0 1024 1024" version="1.1" xmlns="http://www.w3.org/2000/svg" p-id="7814" xmlns:xlink="http://www.w3.org/1999/xlink" width="200" height="200"><path d="M785.068373 545.109333c131.925333 0 238.933333 107.178667 238.933334 239.445334A239.189333 239.189333 0 0 1 785.068373 1024a239.189333 239.189333 0 0 1-238.933333-239.445333 239.189333 239.189333 0 0 1 238.933333-239.445334z m134.656-216.746666a17.066667 17.066667 0 0 1 1.877334 7.936v201.386666c-59.136-23.637333-104.704-35.413333-136.533334-35.413333a281.941333 281.941333 0 0 0-281.6 282.282667 281.6 281.6 0 0 0 79.872 196.949333l-72.362666 30.378667a17.066667 17.066667 0 0 1-23.637334-15.701334V544.085333a17.066667 17.066667 0 0 1 9.216-15.189333l400.128-207.786667a17.066667 17.066667 0 0 1 23.04 7.338667zM17.068373 316.074667a17.066667 17.066667 0 0 1 7.936 1.962666l400.213334 210.944a17.066667 17.066667 0 0 1 9.130666 15.104v449.536a17.066667 17.066667 0 0 1-25.002666 15.104L9.132373 797.866667A17.066667 17.066667 0 0 1 0.001707 782.592v-449.706667c0-9.386667 7.68-17.066667 17.066666-17.066666zM886.10304 744.106667h-34.986667c-0.341333 116.053333-2.218667 156.586667-83.029333 180.821333 7.594667 7.253333 16.981333 20.992 20.565333 30.037333 41.472-13.397333 65.365333-31.829333 79.36-60.416 20.992 18.432 47.701333 42.666667 60.330667 58.197334l27.306667-25.6c-14.336-16.298667-43.52-40.96-65.621334-58.282667l-18.346666 16.213333c12.629333-33.28 14.421333-78.506667 14.421333-140.970666z m-134.570667 27.136l-6.826666 2.133333h-100.693334v36.522667h82.944c-9.642667 19.626667-20.394667 38.656-32.085333 57.173333a600.149333 600.149333 0 0 1-21.333333-19.2l-28.501334 21.333333c25.258667 25.002667 58.112 58.965333 72.533334 80.64l30.72-25.258666a266.24 266.24 0 0 0-27.050667-31.146667c19.797333-30.037333 43.605333-70.144 57.344-105.216l-27.050667-17.066667z m200.192-139.264h-165.546666v37.546666h63.488c-2.901333 10.24-6.826667 21.333333-10.154667 31.146667H794.45504v169.301333h37.888V731.306667h72.192v137.130666h39.68V700.586667h-67.84l12.629333-31.146667h62.72v-37.546667z m-247.466666 78.848l-27.050667 16.213333c13.312 13.397333 29.184 31.829333 37.12 43.52l27.477333-19.626667a338.517333 338.517333 0 0 0-37.546666-40.106666z m-4.693334-97.28c-16.64 42.666667-48.384 90.709333-85.162666 119.637333 8.618667 6.912 22.357333 20.309333 28.501333 28.245333 25.6-22.016 47.616-49.92 66.048-81.066666 22.016 22.869333 45.824 50.005333 57.344 68.778666l26.368-30.037333c-13.653333-19.114667-42.24-48.469333-66.048-71.936 3.584-7.509333 6.826667-15.104 9.728-22.784zM121.345707 455.850667a10.666667 10.666667 0 0 0-5.290667 9.130666v31.744c0 3.84 2.048 7.253333 5.290667 9.130667l180.650666 103.765333a10.581333 10.581333 0 0 0 15.872-9.130666v-31.744a10.581333 10.581333 0 0 0-5.290666-9.216L131.92704 455.936a10.581333 10.581333 0 0 0-10.581333 0zM469.164373 2.048l424.362667 230.058667a17.066667 17.066667 0 0 1-0.170667 30.122666L469.676373 485.461333a17.066667 17.066667 0 0 1-15.701333 0.085334L28.50304 268.8a17.066667 17.066667 0 0 1-0.512-30.122667L452.780373 2.133333a17.066667 17.066667 0 0 1 16.384 0z" fill="#666666" p-id="7815"></path></svg>